<?xml version="1.0" standalone="no"?><!DOCTYPE svg PUBLIC "-//W3C//DTD SVG 1.1//EN" "http://www.w3.org/Graphics/SVG/1.1/DTD/svg11.dtd"><svg t="1766394182353" class="icon" viewBox="0 0 3185 1024" version="1.1" xmlns="http://www.w3.org/2000/svg" p-id="9094" xmlns:xlink="http://www.w3.org/1999/xlink" width="1592.5" height="512"><path d="M509.724444 11.377778C229.831111 11.377778 3.413333 237.795556 3.413333 517.688889 3.413333 741.831111 147.911111 930.702222 349.297778 997.831111c25.031111 4.551111 32.995556-10.24 32.995555-23.893333v-87.608889C241.208889 917.048889 212.764444 819.2 212.764444 819.2c-22.755556-58.026667-55.751111-73.955556-55.751111-73.955556-45.511111-31.857778 3.413333-30.72 3.413334-30.72 51.2 3.413333 77.368889 52.337778 77.368889 52.337778 45.511111 77.368889 118.328889 54.613333 146.773333 42.097778 4.551111-32.995556 18.204444-54.613333 31.857778-67.128889-112.64-12.515556-230.968889-55.751111-230.968889-250.311111 0-55.751111 19.342222-100.124444 52.337778-135.395556-5.688889-12.515556-22.755556-63.715556 4.551111-134.257777 0 0 42.097778-13.653333 138.808889 52.337777 40.96-11.377778 84.195556-17.066667 126.293333-17.066666 43.235556 0 86.471111 5.688889 126.293333 17.066666 96.711111-65.991111 138.808889-52.337778 138.808889-52.337777 27.306667 69.404444 10.24 121.742222 4.551111 134.257777 31.857778 35.271111 52.337778 80.782222 52.337778 135.395556 0 194.56-118.328889 237.795556-230.968889 250.311111 18.204444 15.928889 34.133333 46.648889 34.133333 93.297778v139.946667c0 13.653333 7.964444 28.444444 34.133334 23.893333C868.124444 931.84 1012.622222 741.831111 1012.622222 518.826667 1016.035556 237.795556 789.617778 11.377778 509.724444 11.377778z m0 0" p-id="9095"></path><path d="M1563.306667 473.315556h-159.288889c-3.413333 0-7.964444 3.413333-7.964445 7.964444v77.368889c0 3.413333 3.413333 7.964444 7.964445 7.964444h62.577778v96.711111s-13.653333 4.551111-52.337778 4.551112c-45.511111 0-109.226667-17.066667-109.226667-157.013334S1369.884444 352.711111 1432.462222 352.711111c53.475556 0 77.368889 9.102222 92.16 14.791111 4.551111 1.137778 9.102222-3.413333 9.102222-7.964444l18.204445-75.093334c0-2.275556-1.137778-4.551111-2.275556-5.688888-5.688889-3.413333-42.097778-25.031111-135.395555-25.031112-106.951111 0-216.177778 45.511111-216.177778 263.964445s125.155556 250.311111 230.968889 250.311111c87.608889 0 139.946667-37.546667 139.946667-37.546667 2.275556-1.137778 2.275556-4.551111 2.275555-5.688889V480.142222c-1.137778-3.413333-4.551111-6.826667-7.964444-6.826666z m822.613333-194.56c0-3.413333-3.413333-7.964444-7.964444-7.964445h-89.884445c-3.413333 0-7.964444 3.413333-7.964444 7.964445v174.08h-139.946667V278.755556c0-3.413333-3.413333-7.964444-7.964444-7.964445h-89.884445c-3.413333 0-7.964444 3.413333-7.964444 7.964445v469.902222c0 3.413333 3.413333 7.964444 7.964444 7.964444h89.884445c3.413333 0 7.964444-3.413333 7.964444-7.964444V548.408889h139.946667v201.386667c0 3.413333 3.413333 7.964444 7.964444 7.964444h89.884445c3.413333 0 7.964444-3.413333 7.964444-7.964444V278.755556z m0 0M1732.835556 341.333333c0-32.995556-26.168889-58.026667-58.026667-58.026666s-58.026667 26.168889-58.026667 58.026666c0 32.995556 26.168889 58.026667 58.026667 58.026667s58.026667-26.168889 58.026667-58.026667z m-6.826667 309.475556V433.493333c0-3.413333-3.413333-7.964444-7.964445-7.964444h-89.884444c-3.413333 0-7.964444 4.551111-7.964444 7.964444v310.613334c0 9.102222 5.688889 11.377778 12.515555 11.377777h80.782222c9.102222 0 11.377778-4.551111 11.377778-11.377777 1.137778-15.928889 1.137778-80.782222 1.137778-93.297778z m0 0M2727.253333 426.666667h-88.746666c-3.413333 0-7.964444 3.413333-7.964445 7.964444v230.968889s-22.755556 17.066667-54.613333 17.066667-40.96-14.791111-40.96-46.648889V433.493333c0-3.413333-3.413333-7.964444-7.964445-7.964444h-91.022222c-3.413333 0-7.964444 3.413333-7.964444 7.964444v216.177778c0 93.297778 52.337778 116.053333 124.017778 116.053333 59.164444 0 106.951111-32.995556 106.951111-32.995555s2.275556 17.066667 3.413333 19.342222c1.137778 2.275556 3.413333 3.413333 6.826667 3.413333h58.026666c3.413333 0 7.964444-3.413333 7.964445-7.964444V433.493333c0-3.413333-3.413333-6.826667-7.964445-6.826666z m244.622223-10.24c-51.2 0-85.333333 22.755556-85.333334 22.755555v-159.288889c0-3.413333-3.413333-7.964444-7.964444-7.964444h-89.884445c-3.413333 0-7.964444 3.413333-7.964444 7.964444v469.902223c0 3.413333 3.413333 7.964444 7.964444 7.964444h62.577778c2.275556 0 5.688889-1.137778 6.826667-3.413333 1.137778-2.275556 3.413333-21.617778 3.413333-21.617778s36.408889 35.271111 106.951111 35.271111c81.92 0 128.568889-42.097778 128.568889-186.595556 0-146.773333-75.093333-164.977778-125.155555-164.977777z m-35.271112 263.964444c-30.72-1.137778-52.337778-14.791111-52.337777-14.791111V516.551111s20.48-12.515556 46.648889-14.791111c31.857778-2.275556 62.577778 6.826667 62.577777 83.057778 0 80.782222-13.653333 97.848889-56.888889 95.573333z m-952.32-254.862222h-67.128888v-88.746667c0-3.413333-1.137778-5.688889-5.688889-5.688889h-91.022223c-3.413333 0-5.688889 1.137778-5.688888 5.688889v92.16s-45.511111 11.377778-48.924445 11.377778c-3.413333 1.137778-5.688889 3.413333-5.688889 6.826667v58.026666c0 4.551111 3.413333 7.964444 7.964445 7.964445h46.648889v138.808889c0 103.537778 72.817778 113.777778 121.742222 113.777777 22.755556 0 48.924444-6.826667 53.475555-9.102222 2.275556-1.137778 4.551111-3.413333 4.551111-6.826666v-63.715556c0-3.413333-3.413333-7.964444-7.964444-7.964444-3.413333 0-13.653333 1.137778-25.031111 1.137777-32.995556 0-44.373333-15.928889-44.373333-35.271111V513.137778h67.128888c3.413333 0 7.964444-3.413333 7.964445-7.964445V432.355556c0-3.413333-3.413333-6.826667-7.964445-6.826667z m0 0" fill="#100E0F" p-id="9096"></path></svg>