<?xml version="1.0" standalone="no"?><!DOCTYPE svg PUBLIC "-//W3C//DTD SVG 1.1//EN" "http://www.w3.org/Graphics/SVG/1.1/DTD/svg11.dtd"><svg t="1765964429036" class="icon" viewBox="0 0 1024 1024" version="1.1" xmlns="http://www.w3.org/2000/svg" p-id="12659" xmlns:xlink="http://www.w3.org/1999/xlink" width="512" height="512"><path d="M690.688 0c5.632 0 9.267 1.024 13.312 3.123 3.584 1.536 6.656 3.584 10.752 6.656 5.632 4.608 14.387 11.264 24.525 19.968 17.92 15.36 41.933 36.864 71.168 62.874a43.93 43.93 0 0 0 5.171 4.608c22.016 20.019 44.544 40.909 67.584 61.9l22.016 20.48c4.096 4.097 6.656 6.657 8.192 7.68a25.663 25.663 0 0 1 7.578 22.836v251.75H1024v434.74H921.088V1024H229.837a127.898 127.898 0 0 1-127.898-127.386H0V461.875h101.888V1.485h486.349c14.336 0 25.6 11.264 25.6 25.6 0 14.438-11.264 25.651-25.6 25.651h-435.2v408.78h0.563v0.513h716.288V256.307h-204.8V26.112c0-14.336 11.264-25.6 25.702-26.112z m179.149 896.614h-716.8c0.256 42.24 34.457 76.288 76.749 76.288h640v-76.288z m-582.451-351.59h-80.999c-20.992 1.075-32 11.571-33.075 31.386v237.824c1.075 19.814 12.134 30.259 33.075 31.385h87.603c62.874-2.201 95.386-33.075 97.588-92.518-3.328-38.503-24.832-62.208-64.512-71.015v-1.638c26.47-11.008 39.68-31.386 39.68-61.133-3.277-46.233-29.748-71.014-79.36-74.291z m205.824-3.328c-19.866 1.126-30.362 12.134-31.437 33.024v241.152c1.075 19.814 11.571 29.696 31.385 29.696 19.866 0 30.31-9.882 31.437-29.696V574.72c-1.126-20.89-11.571-31.898-31.437-33.024z m338.022 0c-19.814 1.126-30.31 12.134-31.437 33.024v160.256h-1.638l-133.94-178.38a36.25 36.25 0 0 0-26.47-14.849c-19.814 1.024-30.31 12.083-31.385 32.973v241.152c1.075 19.814 11.57 29.696 31.385 29.696 19.866 0 30.362-9.882 31.437-29.696V657.306h1.638l133.94 176.742c6.656 7.68 15.462 11.571 26.47 11.571 19.866 0 30.31-9.933 31.437-29.747V574.72c-1.127-20.89-11.571-31.898-31.437-33.024z m-550.451 178.38c28.672 0 43.52 11.009 44.646 33.025-1.126 23.142-14.336 35.225-39.68 36.352h-49.664v-69.376h44.698zM269.21 601.19c22.016 1.076 33.638 11.008 34.713 29.696-1.075 20.941-12.697 31.95-34.713 33.024h-33.076v-62.72h33.076zM716.39 77.824V206.08h142.183a273.613 273.613 0 0 0-10.65-9.728c-22.528-20.992-45.568-41.882-67.072-61.44-2.56-2.458-2.56-2.458-5.12-4.608-23.45-20.838-43.315-38.605-59.392-52.48z" p-id="12660" fill="#8a8a8a"></path></svg>