<?xml version="1.0" standalone="no"?><!DOCTYPE svg PUBLIC "-//W3C//DTD SVG 1.1//EN" "http://www.w3.org/Graphics/SVG/1.1/DTD/svg11.dtd"><svg t="1766911717077" class="icon" viewBox="0 0 1084 1024" version="1.1" xmlns="http://www.w3.org/2000/svg" p-id="9294" xmlns:xlink="http://www.w3.org/1999/xlink" width="542" height="512"><path d="M577.295059 54.091294a36.141176 36.141176 0 0 1 37.827765-0.662588l450.138352 265.637647a36.141176 36.141176 0 0 1 0.542118 61.921882l-172.875294 106.134589 172.032 99.44847a36.141176 36.141176 0 0 1 5.782588 58.428235l-4.939294 3.674353-522.962823 321.656471a36.141176 36.141176 0 0 1-32.105412 2.831059l-5.12-2.409412-440.801883-258.529882a36.141176 36.141176 0 0 1-6.384941-57.645177l4.818824-3.734588 183.41647-121.072941-164.382117-96.376471a36.141176 36.141176 0 0 1-6.02353-57.946353l4.818824-3.614117z m245.639529 476.099765l-262.625882 161.310117a36.141176 36.141176 0 0 1-37.225412 0.421648L316.235294 570.548706l-164.743529 108.604235 372.013176 218.172235 452.848941-278.528-153.359058-88.545882zM448.692706 222.268235L169.682824 400.805647 540.912941 618.616471 819.2 447.548235 448.692706 222.268235z m148.781176-95.292235l-81.01647 51.922824 371.892706 226.183529 88.425411-54.332235L597.534118 126.915765z" fill="#2c2c2c" p-id="9295"></path></svg>